<svg xmlns="http://www.w3.org/2000/svg" width="511.626" height="511.626"><path fill="#fff" d="M49.106 178.73l58.528 40.685 74.803 52.1 12.13 8.7 15.416 10.852c4.093 2.758 9.04 5.852 14.85 9.277s11.28 5.996 16.418 7.7c5.14 1.718 9.898 2.57 14.275 2.57h.575c4.377 0 9.137-.852 14.277-2.57 5.137-1.704 10.615-4.28 16.416-7.7 5.804-3.43 10.752-6.52 14.845-9.277s9.23-6.376 15.417-10.852l12.135-8.7 133.615-92.8c13.894-9.703 25.502-21.4 34.827-35.116 9.332-13.7 13.993-28.07 13.993-43.105 0-12.564-4.523-23.32-13.565-32.264s-19.75-13.418-32.117-13.418H45.68c-14.655 0-25.933 4.948-33.832 14.844S0 91.934 0 106.78c0 12 5.236 24.985 15.703 38.974s21.604 24.983 33.403 32.976zm433.966 30.545l-142.177 98.5c-10.85 8-19.65 14.23-26.4 18.7s-15.748 9.04-26.98 13.702c-11.228 4.668-21.692 6.995-31.4 6.995h-.578c-9.707 0-20.177-2.327-31.405-6.995-11.228-4.66-20.223-9.23-26.98-13.702s-15.56-10.708-26.407-18.7c-25.697-18.842-72.995-51.68-141.896-98.5C17.987 202.047 8.375 193.762 0 184.437v226.685c0 12.57 4.47 23.32 13.418 32.265s19.7 13.422 32.264 13.422h420.266c12.56 0 23.315-4.473 32.26-13.422s13.418-19.694 13.418-32.265V184.437c-8.186 9.132-17.7 17.417-28.555 24.838z"/></svg>
