<svg xmlns="http://www.w3.org/2000/svg" viewBox="90 38 227 243" height="400" width="400"><path d="M212.98 37.75c.12.63.67.68 1.12.88 13.08 5.85 20.73 15.92 23.2 30 .37 2.14.38 4.3.38 6.48v28.04c.04 11.35-4 20.94-12.2 28.77-.5.47-.75.94-.74 1.64l-.01 13.68c-.01 1.02.53 1.3 1.27 1.6l36.28 15.57c12.6 5.54 19.4 15.3 20.2 29.07.25 4.23.1 8.5.06 12.73-.01 1.74-1.04 3.17-2.4 3.56-1.64.47-3.3-.1-4.16-1.46-.54-.84-.57-1.8-.58-2.74-.01-4.02.14-8.05-.07-12.05-.54-10.24-5.52-17.67-14.78-22.02-6.07-2.85-12.33-5.32-18.48-8-.84-.37-1.07-.05-1.35.63-1.13 2.72-2.6 5.25-4.26 7.67-1.36 1.98-3.3 2.45-5.13 1.28-1.75-1.13-2.1-3.2-.8-5.22 1.37-2.12 2.66-4.3 3.7-6.6.35-.8.17-1.08-.57-1.4l-9.18-3.97c-.76-.34-.94-.08-1.2.6-4.23 10.76-12.16 16.5-23.67 17.13-10.33.55-20.64-6.5-24.27-16.42-.42-1.14-.76-1.43-1.95-.86-2.8 1.33-5.7 2.5-8.56 3.7-.8.33-1 .64-.6 1.5 6 12.7 15.9 20.28 29.84 22.3 9.3 1.34 17.92-.68 25.86-5.7 2.08-1.3 4.14-.98 5.22.77 1.17 1.88.66 3.93-1.4 5.23-6.27 3.98-13.08 6.42-20.52 7-14.1 1.12-26.18-3.38-36.28-13.23-3.96-3.85-6.97-8.4-9.18-13.44-.42-.96-.8-1.03-1.68-.64l-17.35 7.55c-8.68 3.8-13.92 10.33-15.56 19.68-.2 1.15-.22 2.34-.23 3.5l-.02 11.5c-.02 1.84-.9 3.2-2.26 3.68-1.48.5-3.18.02-4.14-1.2-.44-.55-.7-1.2-.7-1.87.07-5.77-.56-11.58.47-17.3 1.97-10.97 8-19.1 18.1-23.74 12.45-5.72 25.07-11.04 37.64-16.5 1.16-.5 1.6-1.07 1.57-2.37-.1-4.3-.05-8.58-.02-12.87.01-.84-.25-1.4-.86-2-7.88-7.62-12.02-16.9-12.07-27.88l.04-34c.1-9.26 7.93-17.84 17.1-19.04 3.96-.52 7.94-.34 11.9-.23 6.3.18 11.4-2 15.46-6.86 1.7-2.02 3.2-4.26 5.5-5.7.1-.06.1-.28.14-.43h.8c.27.44.54.42.8 0h.54zM230.66 89l-1.44.34c-12.78 3.34-24.93 1.8-36.43-4.72a42.88 42.88 0 0 1-8.95-6.74c-1.75-1.72-1.67-4.15.13-5.54 1.43-1.1 3.25-.97 4.8.46 4.4 4.08 9.36 7.18 15.06 9.06 8.64 2.85 17.27 2.75 25.9-.13.6-.2.9-.4.9-1.1-.1-3.2.14-6.4-.23-9.6-1.23-10.74-6.54-18.8-15.84-24.28-1.17-.7-2.02-.9-2.86.46-.57.9-1.4 1.64-2.13 2.45-4.73 5.2-10.56 8.04-17.62 8.2-3.52.07-7.04-.01-10.56.03-7.1.08-13 5-13.5 11.88-.4 5.42-.08 10.9-.08 16.5 1.94-.66 3.32-1.88 4.6-3.3 1.52-1.67 3.6-1.77 5.17-.35 1.45 1.3 1.54 3.3.2 4.97-2.15 2.67-4.85 4.65-8.16 5.5-1.62.42-1.95 1.14-1.9 2.65.2 4.37-.3 8.76.4 13.1 2.83 17.52 19.48 29.08 36.65 25.95 12.12-2.2 22.4-11.86 25.02-23.9 1.56-7.22.43-14.5.88-21.9zm-13 49.03c-.32-.04-.38-.06-.4-.04l-.87.37c-7.7 3.75-15.78 4.9-24.2 3.4-3.6-.63-7.08-1.72-10.34-3.44-.3-.16-1.1-.96-1.08.2.06 4.14-.4 8.3.24 12.43 1.3 8.54 8.43 14.96 17.03 15.48 8.76.52 16.5-4.94 18.87-13.34 1.4-4.97.4-10.04.77-15.07zm-98.1 78.5c2.1-.08 3.38 1.24 4.3 3.1 1.95 3.96 4.15 7.82 5.8 11.9 1.1 2.73 2.76 3.73 5.54 4 4.4.42 8.75 1.26 13.13 1.82 2.2.3 3.68 1.33 4.32 3.48.58 2-.02 3.62-1.47 5.03l-11.36 11.05c-.7.67-.93 1.3-.76 2.25L141.8 275c.33 1.9-.14 3.5-1.73 4.65-1.67 1.22-3.45 1.48-5.33.5l-14.34-7.6c-.76-.4-1.32-.44-2.1-.02l-13.85 7.36c-2 1.08-3.9 1.24-5.8-.2-1.78-1.34-2.08-3.1-1.7-5.18l2.7-15.6c.15-.82-.1-1.33-.66-1.9l-11.8-11.5c-1.36-1.33-1.77-2.9-1.2-4.7.57-1.82 1.76-3.02 3.7-3.36l3.6-.55 13-1.85c.8-.1 1.17-.43 1.5-1.1l7.06-14.3c1.17-2.35 2.36-3.14 4.73-3.13zm159.44.01c2.23-.13 3.54 1.17 4.46 3.04l5.7 11.5c1.95 3.95 1.95 3.9 6.28 4.46l12.85 1.85c2.12.3 3.43 1.5 4.02 3.5.55 1.85.08 3.44-1.32 4.8l-11.35 11.05c-.84.8-1.1 1.52-.88 2.7l2.72 15.72c.3 1.84-.2 3.4-1.77 4.53-1.67 1.2-3.45 1.48-5.33.48l-14.33-7.6c-.76-.4-1.3-.44-2.1-.02l-14.46 7.64c-1.8.94-3.58.86-5.2-.4-1.56-1.2-2.17-2.8-1.78-4.78l.7-4.27 2.06-11.72c.15-.85-.08-1.42-.7-2l-11.64-11.33c-1.44-1.4-1.9-3.03-1.3-4.93.6-1.95 1.96-3.07 4-3.34l3.34-.5 12.85-1.84c.83-.1 1.24-.45 1.6-1.16l7-14.2c.94-1.9 2.22-3.28 4.6-3.17zm-79.85.01c2.32-.15 3.63 1.22 4.57 3.12 1.82 3.67 3.9 7.25 5.37 11.06 1.28 3.3 3.24 4.73 6.8 4.94 4.17.24 8.3 1.17 12.45 1.73 2.16.3 3.55 1.4 4.17 3.48.6 2-.05 3.6-1.5 5l-11.54 11.24c-.53.52-.73.97-.6 1.76l2.68 15.45c.6 3.35-.6 5.48-3.55 6.3-1.36.37-2.58.01-3.76-.62l-13.98-7.4c-.82-.45-1.43-.4-2.22.02l-14.34 7.58c-2.3 1.2-4.54.65-6.16-1.34-1-1.24-1.04-2.65-.8-4.1l2.72-15.72c.16-.9-.04-1.4-.64-2l-11.45-11.14c-1.5-1.44-2.2-3.03-1.55-5.1.67-2.06 2.1-3.13 4.24-3.42l16.06-2.32c.8-.1 1.16-.46 1.48-1.12l7-14.2c.93-1.87 2.18-3.32 4.55-3.2z" fill="none" class="fill-main-col"/><path d="M230.66 89c-.45 7.38.68 14.68-.88 21.87-2.62 12.06-12.9 21.7-25.02 23.9-17.17 3.13-33.82-8.42-36.65-25.95-.7-4.35-.22-8.74-.4-13.1-.06-1.5.27-2.23 1.9-2.65 3.3-.87 6-2.84 8.16-5.5 1.35-1.68 1.26-3.67-.2-4.97-1.58-1.42-3.65-1.3-5.17.35-1.3 1.4-2.67 2.63-4.6 3.3 0-5.6-.32-11.07.08-16.5.5-6.9 6.4-11.8 13.5-11.88l10.56-.03c7.06-.14 12.9-3 17.62-8.2.73-.8 1.57-1.54 2.13-2.45.85-1.36 1.7-1.15 2.86-.46 9.3 5.48 14.6 13.54 15.84 24.28.37 3.2.12 6.4.23 9.6.02.7-.3.9-.9 1.1-8.62 2.88-17.25 2.98-25.9.13-5.7-1.88-10.67-4.97-15.06-9.06-1.54-1.43-3.36-1.56-4.8-.46-1.8 1.4-1.9 3.82-.13 5.54 2.7 2.63 5.68 4.88 8.95 6.74 11.5 6.52 23.65 8.05 36.43 4.72.4-.08.78-.17 1.44-.32zm-13 49.02c-.38 5.03.62 10.1-.78 15.07-2.36 8.4-10.1 13.86-18.87 13.34-8.6-.5-15.7-6.94-17.03-15.48-.63-4.12-.18-8.3-.24-12.43-.02-1.15.78-.36 1.08-.2 3.26 1.72 6.73 2.8 10.34 3.44 8.43 1.48 16.5.34 24.2-3.4.28-.14.58-.25.87-.37.05-.02.1.01.42.04z" fill="#fdfefe"/></svg>
