<?xml version="1.0" encoding="utf-8"?>
<!-- Generator: Adobe Illustrator 23.0.0, SVG Export Plug-In . SVG Version: 6.00 Build 0)  -->
<svg version="1.1" id="Layer_1" xmlns="http://www.w3.org/2000/svg" xmlns:xlink="http://www.w3.org/1999/xlink" x="0px" y="0px"
	 viewBox="0 0 400 400" style="enable-background:new 0 0 400 400;" xml:space="preserve">
<style type="text/css">
	.line-1{
		transform: translate(-54px, 75px);
	}
	.line-2{
		transform: translate(-82px, -27px);
	}
	.line-3{
		transform: translate(0px, -90px);
	}
	.line-4{
		transform: translate(88px, -27px);
	}
	.line-5{
		transform: translate(56px, 70px);
	}
</style>
	<g class="line line-1">
		<path class="st0" d="M296.46,52.21c-9.12,11.98-18.25,23.95-27.37,35.93c-2.47,3.25-0.48,8.36,2.69,10.26
			c3.83,2.29,7.82,0.51,10.26-2.69c9.12-11.98,18.25-23.95,27.37-35.93c2.47-3.25,0.48-8.36-2.69-10.26
			C302.89,47.23,298.9,49.01,296.46,52.21L296.46,52.21z"/>
	</g>
	<g class="line line-2">
		<path class="st0" d="M358.96,234.92c-13.53-6.6-27.06-13.2-40.6-19.8c-8.64-4.21-16.26,8.72-7.57,12.95
			c13.53,6.6,27.06,13.2,40.6,19.8C360.03,252.08,367.64,239.15,358.96,234.92L358.96,234.92z"/>
	</g>
	<g class="line line-3">
		<path class="st0" d="M196.54,307.18c0,15.06,0,30.11,0,45.17c0,9.65,15,9.67,15,0c0-15.06,0-30.11,0-45.17
			C211.54,297.53,196.54,297.51,196.54,307.18L196.54,307.18z"/>
	</g>
	<g class="line line-4">
		<path class="st0" d="M86.22,218.62c-14.01,5.51-28.02,11.02-42.03,16.54c-3.75,1.48-6.41,5.03-5.24,9.23
			c1,3.58,5.42,6.73,9.23,5.24c14.01-5.51,28.02-11.02,42.03-16.54c3.75-1.48,6.41-5.03,5.24-9.23
			C94.44,220.28,90.02,217.13,86.22,218.62L86.22,218.62z"/>
	</g>
	<g class="line line-5">
		<path class="st0" d="M103.22,64.32c9.3,11.84,18.61,23.67,27.91,35.51c2.52,3.21,7.96,2.59,10.61,0c3.18-3.11,2.49-7.44,0-10.61
			c-9.3-11.84-18.61-23.67-27.91-35.51c-2.52-3.21-7.96-2.59-10.61,0C100.04,56.83,100.73,61.15,103.22,64.32L103.22,64.32z"/>
	</g>
<path class="star" d="M114.38,285.42c0.22-3.95,1.24-8.31,1.98-12.7c2.59-15.33,5.25-30.66,7.87-45.99c0.49-2.86,0.88-5.74,1.49-8.57
	c0.45-2.08-0.09-3.63-1.61-5.1c-15.47-15.01-30.9-30.05-46.33-45.1c-6.39-6.23-8.28-13.67-5.14-22.02
	c2.73-7.25,8.35-11.25,15.94-12.37c19.03-2.82,38.07-5.56,57.11-8.33c2.37-0.35,4.74-0.79,7.12-1c2.27-0.2,3.58-1.37,4.56-3.35
	c9.46-19.28,18.98-38.53,28.47-57.79c2.94-5.96,7.5-9.89,14.06-11.28c9.18-1.95,17.8,2.44,22.18,11.3
	c7.48,15.11,14.92,30.23,22.38,45.35c2.09,4.24,4.24,8.46,6.26,12.73c0.88,1.86,2.18,2.73,4.21,3.02
	c15.79,2.25,31.57,4.58,47.35,6.89c6.18,0.91,12.39,1.65,18.52,2.79c14.27,2.65,20.69,19.69,11.87,31.22
	c-1.6,2.1-3.56,3.85-5.44,5.68c-14.43,14.07-28.87,28.14-43.34,42.17c-1.56,1.51-2.07,3.06-1.7,5.23
	c3.12,17.9,6.16,35.82,9.22,53.73c0.59,3.46,1.16,6.93,1.78,10.38c2.24,12.54-7.4,23.82-20.11,23.47c-3.41-0.09-6.54-1.2-9.53-2.78
	c-18.86-9.94-37.73-19.84-56.57-29.82c-2.15-1.14-3.98-1.11-6.12,0.02c-18.99,10.05-38,20.05-57.03,30.02
	c-9.32,4.89-19.84,2.48-25.89-5.85C115.69,294.25,114.38,290.07,114.38,285.42z"/>
<path class="star-half" d="M199.92,51.81c-6.57,1.39-11.13,5.32-14.06,11.28c-9.49,19.27-19.01,38.52-28.47,57.79
	c-0.97,1.98-2.29,3.15-4.56,3.35c-2.38,0.21-4.75,0.66-7.12,1c-19.04,2.77-38.08,5.52-57.11,8.33c-7.59,1.12-13.22,5.12-15.94,12.37
	c-3.14,8.35-1.25,15.79,5.14,22.02c15.43,15.05,30.86,30.09,46.33,45.1c1.52,1.47,2.06,3.02,1.61,5.1c-0.61,2.83-1,5.71-1.49,8.57
	c-2.63,15.33-5.28,30.65-7.87,45.99c-0.74,4.39-1.76,8.75-1.98,12.7c-0.01,4.65,1.3,8.84,3.58,11.97
	c6.05,8.32,16.57,10.73,25.89,5.85c19.03-9.98,38.04-19.97,57.03-30.02c2.14-1.13,3.97-1.17,6.12-0.02c0.06,0.03,0.12,0.07,0.19,0.1
	V51.61C204.86,51.24,202.41,51.28,199.92,51.81z"/>

</svg>
